<?xml version="1.0" encoding="UTF-8"?><svg id="Layer_2" xmlns="http://www.w3.org/2000/svg" viewBox="0 0 8215.08 3304.35"><defs><style>.cls-1{opacity:.3;}.cls-2{fill:#309a52;}.cls-2,.cls-3,.cls-4{stroke-width:0px;}.cls-3{fill:#32a749;}.cls-4{fill:#004730;}</style></defs><g id="Layer_1-2"><g class="cls-1"><polygon class="cls-4" points="3356.49 2577.26 3858.21 2866.93 3968.95 2802.99 3467.23 2513.32 3356.49 2577.26"/><polygon class="cls-3" points="3252.78 1941.93 3003.6 2085.8 3103.94 2143.73 3353.12 1999.87 3252.78 1941.93"/><polygon class="cls-4" points="3609.03 3010.79 4110.75 3300.46 4221.5 3236.52 3719.78 2946.85 3609.03 3010.79"/><polygon class="cls-3" points="2851.4 1710.2 3100.58 1566.33 3000.24 1508.4 2751.06 1652.26 2851.4 1710.2"/><polygon class="cls-4" points="3103.94 2143.73 3605.67 2433.4 3716.41 2369.46 3214.69 2079.79 3103.94 2143.73"/><polygon class="cls-2" points="3757.86 2809 3508.69 2952.86 3609.03 3010.79 3858.21 2866.93 3757.86 2809"/><polygon class="cls-4" points="2851.4 1710.2 3353.12 1999.87 3463.87 1935.93 2962.15 1646.26 2851.4 1710.2"/><polygon class="cls-2" points="3505.32 2375.46 3256.14 2519.33 3356.49 2577.26 3605.67 2433.4 3505.32 2375.46"/><polygon class="cls-4" points="4962.3 1650.14 5464.03 1939.81 5353.28 2003.75 4851.56 1714.08 4962.3 1650.14"/><polygon class="cls-3" points="3861.88 1590.27 4111.06 1446.4 4211.4 1504.34 3962.23 1648.2 3861.88 1590.27"/><polygon class="cls-4" points="5713.2 1795.95 6214.93 2085.62 6104.18 2149.56 5602.46 1859.89 5713.2 1795.95"/><polygon class="cls-3" points="3460.5 1358.53 3211.33 1502.39 3110.98 1444.46 3360.16 1300.6 3460.5 1358.53"/><polygon class="cls-4" points="4211.4 1504.34 4713.13 1794.01 4602.38 1857.94 4100.66 1568.28 4211.4 1504.34"/><polygon class="cls-2" points="5363.68 1881.88 5612.86 1738.01 5713.2 1795.95 5464.03 1939.81 5363.68 1881.88"/><polygon class="cls-4" points="3460.5 1358.53 3962.23 1648.2 3851.48 1712.14 3349.76 1422.47 3460.5 1358.53"/><polygon class="cls-4" points="2709.6 1212.73 3211.33 1502.39 3100.58 1566.33 2598.86 1276.66 2709.6 1212.73"/><polygon class="cls-2" points="4612.78 1736.07 4861.96 1592.21 4962.3 1650.14 4713.13 1794.01 4612.78 1736.07"/><polygon class="cls-4" points="2353.04 1997.92 2854.77 2287.59 2965.51 2223.65 2463.79 1933.98 2353.04 1997.92"/><polygon class="cls-3" points="2249.34 1362.59 2000.16 1506.46 2100.5 1564.39 2349.68 1420.53 2249.34 1362.59"/><polygon class="cls-4" points="2605.59 2431.46 3107.31 2721.12 3218.05 2657.19 2716.33 2367.52 2605.59 2431.46"/><polygon class="cls-3" points="1847.96 1130.86 2097.14 987 1996.79 929.06 1747.61 1072.92 1847.96 1130.86"/><polygon class="cls-4" points="2100.5 1564.39 2602.22 1854.06 2712.97 1790.12 2211.25 1500.45 2100.5 1564.39"/><polygon class="cls-2" points="2754.42 2229.66 2505.24 2373.52 2605.59 2431.46 2854.77 2287.59 2754.42 2229.66"/><polygon class="cls-4" points="1847.96 1130.86 2349.68 1420.53 2460.43 1356.59 1958.7 1066.92 1847.96 1130.86"/><polygon class="cls-2" points="2501.88 1796.13 2252.7 1939.99 2353.04 1997.92 2602.22 1854.06 2501.88 1796.13"/><polygon class="cls-4" points="3958.86 1070.8 4460.58 1360.47 4349.84 1424.41 3848.12 1134.74 3958.86 1070.8"/><polygon class="cls-3" points="2858.44 1010.93 3107.62 867.06 3207.96 925 2958.78 1068.86 2858.44 1010.93"/><polygon class="cls-4" points="4709.76 1216.61 5211.48 1506.28 5100.74 1570.22 4599.02 1280.55 4709.76 1216.61"/><polygon class="cls-3" points="2457.06 779.19 2207.88 923.06 2107.54 865.12 2356.72 721.26 2457.06 779.19"/><polygon class="cls-4" points="3207.96 925 3709.68 1214.67 3598.94 1278.61 3097.22 988.94 3207.96 925"/><polygon class="cls-2" points="4360.24 1302.54 4609.42 1158.68 4709.76 1216.61 4460.58 1360.47 4360.24 1302.54"/><polygon class="cls-4" points="2457.06 779.19 2958.78 1068.86 2848.04 1132.8 2346.32 843.13 2457.06 779.19"/><polygon class="cls-4" points="1706.16 633.39 2207.88 923.06 2097.14 987 1595.42 697.33 1706.16 633.39"/><polygon class="cls-2" points="3609.34 1156.73 3858.52 1012.87 3958.86 1070.8 3709.68 1214.67 3609.34 1156.73"/><polygon class="cls-4" points="1349.6 1418.59 1851.32 1708.25 1962.07 1644.32 1460.35 1354.65 1349.6 1418.59"/><polygon class="cls-3" points="1245.89 783.26 996.71 927.12 1097.06 985.05 1346.24 841.19 1245.89 783.26"/><polygon class="cls-4" points="1602.14 1852.12 2103.87 2141.79 2214.61 2077.85 1712.89 1788.18 1602.14 1852.12"/><polygon class="cls-4" points="1097.06 985.05 1598.78 1274.72 1709.53 1210.78 1207.8 921.11 1097.06 985.05"/><polygon class="cls-2" points="1750.98 1650.32 1501.8 1794.18 1602.14 1852.12 1851.32 1708.25 1750.98 1650.32"/><polygon class="cls-2" points="1498.44 1216.79 1249.26 1360.65 1349.6 1418.59 1598.78 1274.72 1498.44 1216.79"/><polygon class="cls-4" points="2955.42 491.47 3457.14 781.14 3346.39 845.07 2844.67 555.41 2955.42 491.47"/><polygon class="cls-3" points="1855 431.59 2104.17 287.73 2204.52 345.66 1955.34 489.52 1855 431.59"/><polygon class="cls-4" points="3706.32 637.27 4208.04 926.94 4097.29 990.88 3595.57 701.21 3706.32 637.27"/><polygon class="cls-4" points="2204.52 345.66 2706.24 635.33 2595.49 699.27 2093.77 409.6 2204.52 345.66"/><polygon class="cls-2" points="3356.8 723.2 3605.97 579.34 3706.32 637.27 3457.14 781.14 3356.8 723.2"/><polygon class="cls-2" points="2605.9 577.4 2855.07 433.53 2955.42 491.47 2706.24 635.33 2605.9 577.4"/><polygon class="cls-4" points="598.7 1272.78 1100.42 1562.45 1211.17 1498.51 709.45 1208.84 598.7 1272.78"/><polygon class="cls-2" points="747.54 1070.98 498.36 1214.85 598.7 1272.78 847.88 1128.92 747.54 1070.98"/><polygon class="cls-4" points="2702.88 57.93 3204.6 347.6 3093.85 411.54 2592.13 121.87 2702.88 57.93"/><polygon class="cls-2" points="2353.35 143.86 2602.53 0 2702.88 57.93 2453.7 201.8 2353.35 143.86"/><polygon class="cls-3" points="4256.22 2521.27 4007.04 2665.13 4107.39 2723.07 4356.57 2579.2 4256.22 2521.27"/><polygon class="cls-3" points="3854.84 2289.53 4104.02 2145.67 4003.68 2087.74 3754.5 2231.6 3854.84 2289.53"/><polygon class="cls-4" points="4107.39 2723.07 4609.11 3012.74 4719.85 2948.8 4218.13 2659.13 4107.39 2723.07"/><polygon class="cls-4" points="3854.84 2289.53 4356.57 2579.2 4467.31 2515.26 3965.59 2225.6 3854.84 2289.53"/><polygon class="cls-3" points="4865.32 2169.6 5114.5 2025.74 5214.85 2083.67 4965.67 2227.54 4865.32 2169.6"/><polygon class="cls-3" points="4463.95 1937.87 4214.77 2081.73 4114.42 2023.8 4363.6 1879.94 4463.95 1937.87"/><polygon class="cls-4" points="5214.85 2083.67 5716.57 2373.34 5605.82 2437.28 5104.1 2147.61 5214.85 2083.67"/><polygon class="cls-4" points="4463.95 1937.87 4965.67 2227.54 4854.92 2291.48 4353.2 2001.81 4463.95 1937.87"/><polygon class="cls-4" points="3713.05 1792.06 4214.77 2081.73 4104.02 2145.67 3602.3 1856 3713.05 1792.06"/><polygon class="cls-4" points="4716.49 2371.4 5218.21 2661.07 5107.47 2725.01 4605.74 2435.34 4716.49 2371.4"/></g><g class="cls-1"><polygon class="cls-4" points="5959.02 1074.69 6460.74 1364.36 6349.99 1428.3 5848.27 1138.63 5959.02 1074.69"/><polygon class="cls-3" points="4858.6 1014.81 5107.77 870.95 5208.12 928.88 4958.94 1072.75 4858.6 1014.81"/><polygon class="cls-4" points="6709.92 1220.49 7211.64 1510.16 7100.89 1574.1 6599.17 1284.43 6709.92 1220.49"/><polygon class="cls-3" points="4457.22 783.08 4208.04 926.94 4107.7 869.01 4356.87 725.14 4457.22 783.08"/><polygon class="cls-4" points="5208.12 928.88 5709.84 1218.55 5599.09 1282.49 5097.37 992.82 5208.12 928.88"/><polygon class="cls-2" points="6360.4 1306.42 6609.57 1162.56 6709.92 1220.49 6460.74 1364.36 6360.4 1306.42"/><polygon class="cls-4" points="4457.22 783.08 4958.94 1072.75 4848.19 1136.69 4346.47 847.02 4457.22 783.08"/><polygon class="cls-2" points="5609.5 1160.62 5858.67 1016.76 5959.02 1074.69 5709.84 1218.55 5609.5 1160.62"/><polygon class="cls-4" points="4955.58 495.35 5457.3 785.02 5346.55 848.96 4844.83 559.29 4955.58 495.35"/><polygon class="cls-3" points="3855.15 435.47 4104.33 291.61 4204.68 349.55 3955.5 493.41 3855.15 435.47"/><polygon class="cls-4" points="5706.48 641.16 6208.2 930.83 6097.45 994.76 5595.73 705.1 5706.48 641.16"/><polygon class="cls-3" points="3453.78 203.74 3204.6 347.6 3104.25 289.67 3353.43 145.81 3453.78 203.74"/><polygon class="cls-4" points="4204.68 349.55 4706.4 639.21 4595.65 703.15 4093.93 413.48 4204.68 349.55"/><polygon class="cls-2" points="5356.95 727.09 5606.13 583.22 5706.48 641.16 5457.3 785.02 5356.95 727.09"/><polygon class="cls-4" points="3453.78 203.74 3955.5 493.41 3844.75 557.35 3343.03 267.68 3453.78 203.74"/><polygon class="cls-2" points="4606.05 581.28 4855.23 437.42 4955.58 495.35 4706.4 639.21 4606.05 581.28"/><polygon class="cls-4" points="4703.03 61.82 5204.75 351.49 5094.01 415.43 4592.29 125.76 4703.03 61.82"/><polygon class="cls-2" points="4353.51 147.75 4602.69 3.88 4703.03 61.82 4453.85 205.68 4353.51 147.75"/><polygon class="cls-3" points="5862.04 1594.15 6111.22 1450.29 6211.56 1508.22 5962.38 1652.08 5862.04 1594.15"/><polygon class="cls-3" points="5460.66 1362.42 5211.48 1506.28 5111.14 1448.35 5360.32 1304.48 5460.66 1362.42"/><polygon class="cls-4" points="6211.56 1508.22 6713.28 1797.89 6602.54 1861.83 6100.82 1572.16 6211.56 1508.22"/><polygon class="cls-4" points="5460.66 1362.42 5962.38 1652.08 5851.64 1716.02 5349.92 1426.35 5460.66 1362.42"/><polygon class="cls-4" points="6457.38 786.96 6959.1 1076.63 6848.35 1140.57 6346.63 850.9 6457.38 786.96"/><polygon class="cls-4" points="7208.28 932.77 7710 1222.44 7599.25 1286.38 7097.53 996.71 7208.28 932.77"/><polygon class="cls-2" points="6858.75 1018.7 7107.93 874.83 7208.28 932.77 6959.1 1076.63 6858.75 1018.7"/><polygon class="cls-2" points="6107.85 872.89 6357.03 729.03 6457.38 786.96 6208.2 930.83 6107.85 872.89"/><polygon class="cls-4" points="5453.93 207.62 5955.65 497.29 5844.91 561.23 5343.19 271.56 5453.93 207.62"/><polygon class="cls-4" points="6204.83 353.43 6706.55 643.1 6595.81 707.04 6094.09 417.37 6204.83 353.43"/><polygon class="cls-2" points="5855.31 439.36 6104.49 295.5 6204.83 353.43 5955.65 497.29 5855.31 439.36"/><polygon class="cls-2" points="5104.41 293.55 5353.59 149.69 5453.93 207.62 5204.75 351.49 5104.41 293.55"/></g><g class="cls-1"><polygon class="cls-3" points="2256.06 2517.39 2006.89 2661.25 2107.23 2719.18 2356.41 2575.32 2256.06 2517.39"/><polygon class="cls-3" points="1854.69 2285.65 2103.87 2141.79 2003.52 2083.85 1754.34 2227.72 1854.69 2285.65"/><polygon class="cls-4" points="2107.23 2719.18 2608.95 3008.85 2719.7 2944.91 2217.98 2655.24 2107.23 2719.18"/><polygon class="cls-4" points="1854.69 2285.65 2356.41 2575.32 2467.15 2511.38 1965.43 2221.71 1854.69 2285.65"/><polygon class="cls-2" points="2508.61 2950.92 2259.43 3094.78 2359.77 3152.71 2608.95 3008.85 2508.61 2950.92"/><polygon class="cls-4" points="1356.33 2573.38 1858.05 2863.05 1968.8 2799.11 1467.08 2509.44 1356.33 2573.38"/><polygon class="cls-3" points="1252.62 1938.05 1003.44 2081.91 1103.79 2139.84 1352.97 1995.98 1252.62 1938.05"/><polygon class="cls-4" points="1608.87 3006.91 2110.59 3296.58 2221.34 3232.64 1719.62 2942.97 1608.87 3006.91"/><polygon class="cls-3" points="851.24 1706.31 1100.42 1562.45 1000.08 1504.51 750.9 1648.38 851.24 1706.31"/><polygon class="cls-4" points="1103.79 2139.84 1605.51 2429.51 1716.25 2365.57 1214.53 2075.9 1103.79 2139.84"/><polygon class="cls-2" points="1757.71 2805.11 1508.53 2948.98 1608.87 3006.91 1858.05 2863.05 1757.71 2805.11"/><polygon class="cls-4" points="851.24 1706.31 1352.97 1995.98 1463.71 1932.04 961.99 1642.37 851.24 1706.31"/><polygon class="cls-2" points="1505.16 2371.58 1255.99 2515.44 1356.33 2573.38 1605.51 2429.51 1505.16 2371.58"/><polygon class="cls-4" points="352.89 1994.04 854.61 2283.71 965.35 2219.77 463.63 1930.1 352.89 1994.04"/><polygon class="cls-3" points="249.18 1358.71 0 1502.57 100.34 1560.51 349.52 1416.64 249.18 1358.71"/><polygon class="cls-4" points="605.43 2427.57 1107.15 2717.24 1217.9 2653.3 716.18 2363.63 605.43 2427.57"/><polygon class="cls-4" points="100.34 1560.51 602.07 1850.18 712.81 1786.24 211.09 1496.57 100.34 1560.51"/><polygon class="cls-2" points="754.26 2225.77 505.09 2369.64 605.43 2427.57 854.61 2283.71 754.26 2225.77"/><polygon class="cls-2" points="501.72 1792.24 252.54 1936.1 352.89 1994.04 602.07 1850.18 501.72 1792.24"/><polygon class="cls-3" points="3259.51 3096.72 3010.33 3240.59 3110.67 3298.52 3359.85 3154.66 3259.51 3096.72"/><polygon class="cls-3" points="2858.13 2864.99 3107.31 2721.12 3006.96 2663.19 2757.79 2807.05 2858.13 2864.99"/><polygon class="cls-4" points="2858.13 2864.99 3359.85 3154.66 3470.6 3090.72 2968.88 2801.05 2858.13 2864.99"/><polygon class="cls-4" points="857.97 2861.1 1359.69 3150.77 1470.44 3086.83 968.72 2797.16 857.97 2861.1"/><polygon class="cls-2" points="1259.35 3092.84 1010.17 3236.7 1110.52 3294.64 1359.69 3150.77 1259.35 3092.84"/><polygon class="cls-2" points="1006.81 2659.31 757.63 2803.17 857.97 2861.1 1107.15 2717.24 1006.81 2659.31"/><polygon class="cls-4" points="107.07 2715.3 608.79 3004.97 719.54 2941.03 217.82 2651.36 107.07 2715.3"/><polygon class="cls-2" points="255.91 2513.5 6.73 2657.36 107.07 2715.3 356.25 2571.43 255.91 2513.5"/></g><g class="cls-1"><polygon class="cls-3" points="6470.83 3096.54 6221.65 3240.41 6121.31 3182.47 6370.49 3038.61 6470.83 3096.54"/><polygon class="cls-4" points="5719.93 2950.74 6221.65 3240.41 6110.91 3304.35 5609.19 3014.68 5719.93 2950.74"/><polygon class="cls-3" points="5259.66 3100.61 5010.49 3244.47 5110.83 3302.41 5360.01 3158.54 5259.66 3100.61"/><polygon class="cls-3" points="4858.29 2868.87 5107.47 2725.01 5007.12 2667.08 4757.94 2810.94 4858.29 2868.87"/><polygon class="cls-4" points="4858.29 2868.87 5360.01 3158.54 5470.75 3094.6 4969.03 2804.93 4858.29 2868.87"/><polygon class="cls-4" points="6969.19 2808.82 7470.91 3098.49 7360.17 3162.43 6858.44 2872.76 6969.19 2808.82"/><polygon class="cls-3" points="5868.77 2748.94 6117.95 2605.08 6218.29 2663.01 5969.11 2806.88 5868.77 2748.94"/><polygon class="cls-3" points="5467.39 2517.21 5218.21 2661.07 5117.87 2603.14 5367.05 2459.27 5467.39 2517.21"/><polygon class="cls-4" points="6218.29 2663.01 6720.01 2952.68 6609.27 3016.62 6107.54 2726.95 6218.29 2663.01"/><polygon class="cls-4" points="5467.39 2517.21 5969.11 2806.88 5858.37 2870.82 5356.64 2581.15 5467.39 2517.21"/><polygon class="cls-2" points="6619.67 2894.75 6868.85 2750.88 6969.19 2808.82 6720.01 2952.68 6619.67 2894.75"/><polygon class="cls-2" points="4508.76 2954.8 4259.59 3098.67 4359.93 3156.6 4609.11 3012.74 4508.76 2954.8"/><polygon class="cls-4" points="5965.75 2229.48 6467.47 2519.15 6356.72 2583.09 5855 2293.42 5965.75 2229.48"/><polygon class="cls-4" points="6716.65 2375.29 7218.37 2664.96 7107.62 2728.89 6605.9 2439.23 6716.65 2375.29"/><polygon class="cls-2" points="6367.12 2461.22 6616.3 2317.35 6716.65 2375.29 6467.47 2519.15 6367.12 2461.22"/><polygon class="cls-2" points="5616.22 2315.41 5865.4 2171.55 5965.75 2229.48 5716.57 2373.34 5616.22 2315.41"/></g><g class="cls-1"><polygon class="cls-3" points="7467.55 2521.09 7218.37 2664.96 7118.02 2607.02 7367.2 2463.16 7467.55 2521.09"/><polygon class="cls-4" points="7467.55 2521.09 7969.27 2810.76 7858.52 2874.7 7356.8 2585.03 7467.55 2521.09"/><polygon class="cls-3" points="6865.48 2173.49 7114.66 2029.63 7215 2087.56 6965.83 2231.42 6865.48 2173.49"/><polygon class="cls-3" points="6464.1 1941.75 6214.93 2085.62 6114.58 2027.68 6363.76 1883.82 6464.1 1941.75"/><polygon class="cls-4" points="7215 2087.56 7716.73 2377.23 7605.98 2441.17 7104.26 2151.5 7215 2087.56"/><polygon class="cls-4" points="6464.1 1941.75 6965.83 2231.42 6855.08 2295.36 6353.36 2005.69 6464.1 1941.75"/><polygon class="cls-2" points="7616.38 2319.29 7865.56 2175.43 7965.9 2233.37 7716.73 2377.23 7616.38 2319.29"/><polygon class="cls-4" points="6962.46 1654.03 7464.18 1943.7 7353.44 2007.64 6851.72 1717.97 6962.46 1654.03"/><polygon class="cls-4" points="7713.36 1799.83 8215.08 2089.5 8104.34 2153.44 7602.62 1863.77 7713.36 1799.83"/><polygon class="cls-2" points="7363.84 1885.76 7613.02 1741.9 7713.36 1799.83 7464.18 1943.7 7363.84 1885.76"/><polygon class="cls-2" points="6612.94 1739.96 6862.12 1596.09 6962.46 1654.03 6713.28 1797.89 6612.94 1739.96"/><polygon class="cls-4" points="7460.82 1366.3 7962.54 1655.97 7851.79 1719.91 7350.07 1430.24 7460.82 1366.3"/><polygon class="cls-2" points="7862.2 1598.04 8111.37 1454.17 8211.72 1512.11 7962.54 1655.97 7862.2 1598.04"/><polygon class="cls-2" points="7111.3 1452.23 7360.47 1308.37 7460.82 1366.3 7211.64 1510.16 7111.3 1452.23"/></g></g></svg>